<?xml version="1.0" standalone="no"?>
<!DOCTYPE svg PUBLIC "-//W3C//DTD SVG 20010904//EN"
 "http://www.w3.org/TR/2001/REC-SVG-20010904/DTD/svg10.dtd">
<svg version="1.0" xmlns="http://www.w3.org/2000/svg"
 width="1024.000000pt" height="1024.000000pt" viewBox="0 0 1024.000000 1024.000000"
 preserveAspectRatio="xMidYMid meet">

<g transform="translate(0.000000,1024.000000) scale(0.100000,-0.100000)"
fill="#121c17" stroke="none">
<path d="M5064 8210 c-108 -23 -471 -205 -671 -337 -46 -30 -86 -60 -89 -65
-13 -20 63 2 248 73 363 140 461 167 487 135 22 -26 7 -143 -21 -173 -12 -12
-26 -23 -31 -23 -22 0 -97 -73 -117 -114 -25 -52 -30 -158 -10 -196 27 -52 72
-99 114 -119 74 -36 81 -50 81 -155 l0 -91 -123 1 c-67 1 -126 4 -129 8 -4 4
-10 62 -13 130 -5 128 -14 156 -51 156 -10 0 -26 -12 -36 -27 -15 -22 -18 -57
-21 -218 l-4 -191 25 -16 c13 -9 46 -18 73 -20 46 -3 49 -5 52 -33 5 -50 -14
-62 -160 -99 -305 -78 -556 -188 -781 -342 -459 -314 -755 -731 -918 -1289
-25 -85 -59 -259 -59 -304 0 -11 -38 -13 -232 -7 -128 4 -242 10 -254 12 -12
3 -26 19 -33 41 -18 49 -76 110 -133 139 -98 50 -246 22 -313 -58 -100 -119
-101 -256 -3 -363 135 -148 350 -114 444 71 l29 56 125 -6 c69 -3 279 -9 468
-12 337 -7 344 -7 351 -28 5 -12 11 -83 15 -160 l6 -138 -78 95 c-42 52 -86
107 -97 122 -15 21 -32 29 -70 35 -28 4 -51 7 -52 6 0 0 4 -17 11 -36 14 -39
64 -110 180 -252 147 -181 153 -193 222 -435 9 -35 21 -63 25 -63 4 0 22 29
40 65 36 75 36 77 -17 247 -42 130 -61 244 -70 411 l-7 118 277 -1 c218 -1
278 -4 282 -14 3 -7 -29 -74 -70 -148 -96 -174 -318 -584 -464 -858 -63 -118
-120 -225 -128 -237 -8 -13 -57 -103 -110 -200 -237 -439 -315 -567 -355 -583
-48 -20 -69 -55 -69 -115 0 -44 5 -58 28 -83 52 -55 133 -55 185 1 28 30 29
35 23 91 -6 55 -3 64 35 140 37 73 206 387 256 476 11 19 44 80 73 135 29 55
90 168 135 250 45 83 105 193 132 245 142 269 475 875 488 888 6 6 876 2 886
-3 8 -5 16 -275 25 -782 l6 -342 -49 4 c-313 30 -351 37 -577 112 -113 38
-212 79 -300 125 -72 37 -169 87 -215 109 l-85 42 -18 -23 c-10 -12 -18 -28
-18 -36 0 -17 44 -49 150 -112 313 -184 652 -291 977 -309 61 -3 118 -10 125
-14 10 -7 14 -76 16 -324 l3 -315 -31 0 c-86 0 -345 67 -505 131 -334 134
-606 343 -826 634 -23 30 -48 55 -55 55 -18 0 -54 -36 -54 -53 0 -21 101 -159
181 -248 240 -267 589 -469 1004 -581 l50 -14 -124 -18 c-189 -28 -395 -12
-562 45 -159 54 -379 190 -547 339 -108 96 -141 120 -168 120 -29 0 -48 -25
-40 -54 10 -40 227 -226 403 -344 294 -199 746 -342 1161 -368 l112 -7 0 -136
c0 -151 9 -184 52 -189 45 -5 58 27 59 148 0 58 3 123 7 145 8 45 -2 41 182
70 114 18 340 74 429 107 56 20 87 34 211 90 508 231 993 747 1209 1287 59
145 116 367 132 510 14 119 9 148 -28 157 -35 9 -58 -20 -68 -83 -62 -433
-188 -740 -445 -1088 -23 -31 -45 -54 -48 -50 -3 3 -7 34 -9 68 -1 34 -10 141
-19 237 l-17 175 37 85 c59 134 105 272 147 440 21 85 39 162 39 171 0 9 -9
24 -20 34 -20 18 -21 18 -48 -2 -15 -11 -69 -82 -120 -159 -110 -164 -150
-210 -169 -191 -7 7 -60 100 -118 206 -80 147 -103 196 -93 202 7 5 58 9 113
9 55 0 343 7 640 15 741 20 681 21 688 -13 11 -55 70 -125 131 -157 48 -24 70
-29 130 -30 59 0 79 5 121 28 28 15 64 44 80 65 145 182 24 442 -205 442 -113
0 -222 -73 -251 -168 l-11 -39 -422 -12 c-840 -25 -1050 -28 -1073 -18 -31 14
-59 59 -231 367 -13 25 -53 95 -87 155 -34 61 -99 178 -145 260 -46 83 -99
177 -118 210 -35 61 -235 418 -322 575 -26 47 -76 132 -111 190 -35 58 -73
125 -83 150 -11 25 -30 69 -43 99 -36 82 -33 93 24 89 54 -3 44 8 149 -177 35
-63 72 -119 81 -126 9 -7 50 -29 92 -51 168 -86 299 -169 460 -292 89 -69 119
-97 110 -103 -8 -5 -109 -9 -225 -9 -181 0 -213 -2 -225 -16 -16 -20 -3 -44
36 -63 22 -10 86 -13 284 -13 l256 1 98 -102 c244 -254 493 -592 534 -727 8
-25 17 -110 20 -190 6 -133 8 -146 29 -167 25 -25 41 -28 64 -13 12 8 15 35
14 147 -3 253 -35 532 -85 722 -16 63 -28 115 -26 117 1 2 31 -36 65 -84 123
-171 259 -483 297 -683 9 -46 20 -100 25 -119 5 -19 12 -45 15 -57 8 -30 40
-38 70 -19 29 19 30 34 10 140 -40 206 -99 385 -182 551 -39 78 -126 226 -155
265 -11 14 -37 50 -59 80 -75 104 -214 252 -333 357 -290 256 -661 441 -1040
518 -150 31 -167 38 -189 74 -25 42 -7 61 58 61 69 0 76 12 70 116 -3 44 -5
134 -5 202 0 119 -1 123 -24 133 -55 25 -89 -38 -101 -189 -4 -45 -13 -88 -20
-95 -9 -9 -47 -13 -126 -12 l-114 0 -3 60 c-6 119 1 138 80 202 80 65 100 103
101 193 0 37 -7 70 -23 103 -23 48 -86 109 -126 121 -25 8 -34 41 -34 122 0
34 5 58 16 68 22 23 107 20 184 -5 61 -21 64 -21 77 -4 32 44 1 77 -135 148
-116 60 -166 72 -238 57z m89 -474 c43 -17 85 -68 93 -111 13 -69 -33 -148
-96 -165 -61 -16 -116 -3 -161 40 -36 34 -39 41 -39 92 0 116 101 187 203 144z
m-97 -792 c14 -56 -5 -273 -31 -350 -25 -75 -114 -252 -240 -479 -40 -71 -135
-245 -210 -385 -208 -384 -246 -454 -320 -590 -69 -127 -146 -250 -168 -269
-8 -6 -110 -7 -300 -2 -235 6 -291 11 -303 23 -13 13 -13 33 -4 149 20 227 91
470 210 714 88 181 111 211 168 224 26 6 193 18 372 27 354 18 443 29 448 56
2 9 -7 23 -20 31 -19 12 -69 13 -323 5 -165 -5 -333 -7 -373 -6 l-74 3 65 75
c206 240 454 436 666 525 94 40 106 42 96 18 -53 -121 -51 -167 8 -161 29 3
37 12 88 106 30 56 67 114 82 130 33 34 57 91 57 135 0 43 5 47 56 47 39 0 44
-3 50 -26z m708 -239 c261 -76 489 -187 689 -338 37 -28 67 -56 67 -63 0 -16
-85 -48 -168 -64 l-62 -13 -68 59 c-60 54 -121 101 -277 215 -27 20 -125 82
-217 138 -93 57 -168 104 -168 105 0 8 127 -17 204 -39z m-473 -225 c40 -69
118 -206 174 -305 56 -99 154 -272 219 -385 65 -112 163 -285 218 -384 95
-170 127 -227 155 -271 26 -41 128 -241 131 -256 3 -15 -23 -17 -250 -24 -139
-3 -363 -5 -498 -3 l-245 3 -5 600 c-5 579 6 1174 21 1158 4 -5 40 -64 80
-133z m-1171 13 c-77 -62 -195 -189 -289 -310 -87 -111 -93 -116 -163 -147
-82 -36 -181 -100 -247 -160 -118 -109 79 135 230 284 127 126 268 236 406
317 104 61 125 66 63 16z m959 -1182 l1 -464 -411 6 c-226 3 -414 8 -417 12
-7 7 44 110 162 324 37 70 82 151 98 181 17 30 76 138 133 240 116 209 125
225 225 405 40 72 100 180 134 240 l61 110 6 -295 c3 -162 7 -504 8 -759z
m1591 843 c17 -15 41 -47 54 -73 43 -85 121 -356 141 -491 7 -45 7 -45 -82 78
-94 128 -184 237 -315 381 -43 47 -75 87 -73 90 12 11 144 39 192 40 42 1 57
-4 83 -25z m-3049 -290 c-38 -64 -118 -257 -159 -384 -53 -163 -80 -302 -91
-452 -6 -100 -11 -123 -26 -134 -20 -15 -121 -17 -250 -5 l-70 6 3 50 c8 129
85 368 161 497 63 107 146 212 237 297 71 66 196 161 212 161 2 0 -5 -16 -17
-36z m2680 -1176 c24 -40 88 -160 142 -266 l99 -193 -23 -26 c-33 -35 -194
-163 -270 -216 -200 -137 -470 -257 -689 -307 -158 -36 -334 -58 -343 -44 -4
7 -14 510 -20 1029 l-1 80 285 5 c156 3 395 6 530 8 l247 2 43 -72z m448 -465
c-16 -48 -33 -91 -37 -95 -12 -12 -35 69 -25 86 14 23 78 95 85 96 4 0 -7 -39
-23 -87z m-133 -206 c5 -35 0 -53 -29 -109 -73 -140 -257 -368 -403 -500 -223
-201 -467 -351 -741 -457 -97 -36 -205 -63 -215 -53 -5 5 -12 506 -9 613 1 13
23 18 114 28 270 29 530 110 767 238 132 71 328 207 433 300 l51 46 13 -32 c8
-18 16 -51 19 -74z m65 -529 c-11 -124 -39 -190 -100 -232 -52 -36 -268 -137
-396 -184 -154 -57 -439 -133 -493 -132 -4 0 31 21 78 46 199 107 447 290 576
427 88 92 204 237 270 336 l49 74 13 -114 c8 -80 9 -145 3 -221z m-472 -532
c-84 -57 -312 -162 -453 -208 -172 -56 -371 -99 -466 -101 l-65 -2 -3 62 c-3
72 -11 67 128 82 259 29 376 47 510 77 90 21 288 80 330 98 52 22 59 19 19 -8z
m-1099 -262 l0 -67 -112 7 c-116 7 -307 32 -316 41 -3 3 18 5 45 5 60 0 164
20 283 53 47 14 88 25 93 26 4 0 7 -29 7 -65z"/>
<path d="M4009 5509 c-17 -17 -20 -29 -15 -58 3 -20 13 -42 23 -48 25 -19 77
-16 96 5 23 25 22 85 -1 105 -26 24 -78 21 -103 -4z"/>
<path d="M5716 4399 c-73 -57 15 -167 92 -113 16 11 22 25 22 55 0 71 -59 101
-114 58z"/>
<path d="M6242 7688 c-34 -34 6 -81 65 -76 30 2 39 7 41 24 6 42 -76 82 -106
52z"/>
<path d="M3910 7640 c-54 -13 -87 -64 -57 -88 15 -13 107 8 133 28 17 15 18
42 2 58 -13 13 -27 14 -78 2z"/>
<path d="M6447 7593 c-15 -15 -5 -51 21 -75 15 -14 68 -51 117 -83 171 -110
327 -231 472 -367 79 -73 123 -101 147 -92 25 10 19 39 -16 81 -113 134 -479
422 -655 514 -56 29 -74 34 -86 22z"/>
<path d="M3650 7499 c-91 -50 -120 -75 -120 -105 0 -34 28 -34 95 -1 100 48
164 124 119 141 -9 3 -16 6 -17 6 -1 0 -36 -19 -77 -41z"/>
<path d="M3362 7310 c-48 -34 -66 -63 -57 -90 10 -33 49 -24 101 23 41 37 46
47 40 70 -9 35 -32 35 -84 -3z"/>
<path d="M5727 7318 c-44 -34 -19 -110 36 -110 38 0 57 19 57 58 0 55 -51 83
-93 52z"/>
<path d="M5927 7242 c-23 -25 -21 -58 3 -82 24 -24 48 -25 78 -4 26 18 30 65
6 88 -21 22 -67 20 -87 -2z"/>
<path d="M3123 7111 c-198 -172 -477 -520 -581 -727 -45 -87 -55 -122 -43
-143 14 -22 44 -4 76 46 163 264 301 444 504 658 139 147 155 169 147 200 -4
14 -13 25 -21 25 -8 0 -45 -27 -82 -59z"/>
<path d="M6122 7158 c-21 -21 -15 -76 12 -93 51 -34 116 28 82 80 -18 28 -72
35 -94 13z"/>
<path d="M6304 7052 c-12 -8 -34 -46 -34 -59 0 -19 42 -53 64 -53 27 0 56 29
56 56 0 46 -51 80 -86 56z"/>
<path d="M6456 6915 c-20 -21 -21 -59 0 -79 8 -9 31 -16 50 -16 27 0 37 5 46
26 26 56 -52 113 -96 69z"/>
<path d="M7292 6858 c-19 -19 -15 -34 19 -73 62 -71 124 -18 64 54 -28 32 -62
40 -83 19z"/>
<path d="M7670 6303 c1 -32 64 -176 83 -187 53 -33 38 92 -20 172 -26 35 -63
44 -63 15z"/>
<path d="M2386 6121 c-10 -11 -16 -31 -14 -48 3 -24 8 -28 36 -31 41 -4 62 12
62 47 0 50 -50 69 -84 32z"/>
<path d="M2908 6023 c-9 -10 -19 -28 -22 -40 -14 -46 68 -95 102 -61 19 19 15
82 -6 101 -24 22 -55 22 -74 0z"/>
<path d="M2807 5782 c-37 -40 -7 -102 49 -102 27 0 54 30 54 62 0 51 -69 78
-103 40z"/>
<path d="M7926 5614 c-38 -37 -3 -113 46 -100 13 3 29 10 36 14 17 12 19 67 2
87 -16 20 -64 19 -84 -1z"/>
<path d="M2727 5562 c-36 -39 -7 -92 49 -92 39 0 54 16 54 57 0 22 -6 36 -19
43 -30 15 -66 12 -84 -8z"/>
<path d="M2214 5504 c-25 -37 -9 -78 31 -82 50 -6 75 57 37 91 -26 24 -49 21
-68 -9z"/>
<path d="M7962 5398 c-18 -18 -14 -73 7 -99 18 -22 19 -22 45 -6 20 14 26 25
26 55 0 43 -14 62 -45 62 -12 0 -26 -5 -33 -12z"/>
<path d="M2200 5310 c-26 -26 -26 -64 0 -90 40 -40 80 -19 80 42 0 32 -5 40
-30 53 -28 14 -31 14 -50 -5z"/>
<path d="M2920 4691 c-15 -29 -12 -184 6 -313 38 -281 137 -569 276 -810 66
-115 72 -119 92 -68 21 52 20 68 -4 115 -42 80 -160 356 -160 372 0 4 44 -36
98 -88 54 -52 118 -109 142 -128 l43 -35 28 34 28 34 -132 135 c-73 75 -155
170 -182 211 -65 98 -110 219 -136 371 -25 148 -40 189 -68 189 -11 0 -25 -9
-31 -19z"/>
<path d="M8051 4446 c-20 -24 -24 -99 -7 -121 16 -20 16 -20 35 2 23 28 36
100 20 119 -15 18 -33 18 -48 0z"/>
<path d="M7740 4397 c-25 -12 -44 -66 -33 -94 10 -26 53 -35 79 -18 19 12 24
24 24 58 0 63 -21 79 -70 54z"/>
<path d="M2146 4344 c-20 -19 -20 -37 -1 -73 31 -61 85 -46 85 22 0 24 -5 48
-12 55 -17 17 -54 15 -72 -4z"/>
<path d="M4355 4270 c-22 -25 -22 -76 1 -101 23 -25 78 -25 104 1 24 24 26 67
4 98 -20 29 -83 31 -109 2z"/>
<path d="M7676 4168 c-19 -27 -21 -69 -4 -86 20 -20 86 -15 98 7 17 32 12 69
-12 85 -32 22 -64 20 -82 -6z"/>
<path d="M7616 3961 c-26 -29 -17 -73 17 -89 39 -19 72 -8 87 28 10 25 10 34
-4 55 -21 31 -74 35 -100 6z"/>
<path d="M7942 3863 c-16 -6 -35 -44 -61 -120 -11 -34 -54 -133 -96 -220 -41
-87 -75 -167 -75 -179 0 -25 18 -44 41 -44 43 0 239 444 239 539 0 31 -14 38
-48 24z"/>
<path d="M2315 3774 c-17 -18 -15 -46 8 -93 31 -62 83 -51 81 17 -1 74 -50
115 -89 76z"/>
<path d="M7473 3652 c-17 -10 -33 -56 -24 -70 11 -17 78 -43 96 -36 36 14 46
71 17 97 -19 18 -68 22 -89 9z"/>
<path d="M2408 3529 c-10 -5 -18 -18 -18 -27 1 -48 153 -335 246 -463 37 -50
55 -62 80 -52 25 9 12 47 -50 151 -31 52 -91 160 -132 240 -86 166 -91 172
-126 151z"/>
<path d="M7608 3203 c-8 -10 -34 -47 -58 -83 -79 -119 -227 -293 -369 -436
-138 -139 -170 -186 -140 -204 52 -32 378 296 556 560 83 124 98 162 67 174
-26 10 -40 7 -56 -11z"/>
<path d="M3242 2448 c-7 -7 -12 -17 -12 -23 0 -38 318 -255 373 -255 32 0 45
23 27 45 -7 9 -63 50 -124 92 -61 42 -133 94 -161 115 -52 39 -82 47 -103 26z"/>
<path d="M6864 2406 c-36 -31 -38 -35 -26 -60 16 -36 42 -33 91 12 40 36 41
38 26 60 -22 31 -45 28 -91 -12z"/>
<path d="M4327 2332 c-21 -23 -22 -51 -1 -80 31 -45 104 -17 104 40 0 51 -69
78 -103 40z"/>
<path d="M6645 2265 c-78 -43 -103 -70 -89 -93 6 -9 21 -18 33 -20 36 -6 161
77 161 107 0 11 -28 41 -38 41 -4 0 -34 -16 -67 -35z"/>
<path d="M3726 2138 c-10 -14 -12 -27 -6 -38 22 -41 384 -189 424 -174 23 9
26 31 7 48 -9 8 -55 31 -101 50 -47 19 -131 57 -186 85 -56 28 -107 51 -112
51 -6 0 -18 -10 -26 -22z"/>
<path d="M6363 2118 c-46 -23 -66 -55 -51 -81 13 -24 54 -21 103 8 49 28 60
48 42 75 -15 25 -41 24 -94 -2z"/>
<path d="M4477 2112 c-36 -40 -4 -102 52 -102 55 0 82 74 39 104 -30 21 -71
20 -91 -2z"/>
<path d="M5066 2074 c-39 -14 -100 -55 -124 -84 -33 -39 -62 -117 -62 -169 0
-78 18 -127 68 -182 54 -60 85 -77 164 -90 165 -27 318 102 318 267 0 180
-197 320 -364 258z"/>
<path d="M6095 2014 c-108 -38 -124 -47 -130 -65 -9 -27 12 -49 46 -49 33 0
157 46 178 66 12 11 12 18 3 39 -13 29 -36 31 -97 9z"/>
<path d="M4234 1915 c-4 -8 -3 -22 0 -31 8 -20 83 -53 142 -61 38 -5 49 -3 60
12 22 30 0 51 -75 74 -82 25 -119 27 -127 6z"/>
<path d="M5748 1923 c-35 -5 -50 -25 -46 -60 3 -25 7 -28 43 -31 47 -3 108 25
113 51 8 40 -26 53 -110 40z"/>
</g>
</svg>
